<mxfile host="app.diagrams.net" modified="2021-02-11T16:29:20.659Z" agent="5.0 (Macintosh; Intel Mac OS X 10_15_6) AppleWebKit/605.1.15 (KHTML, like Gecko) Version/14.0.3 Safari/605.1.15" etag="3MDhlhWm-Vk0cfV5LcjG" version="14.3.1" type="github">
  <diagram id="3o25HSMV5YpiCVIJ6ohV" name="Page-1">
    <mxGraphModel dx="2178" dy="921" grid="1" gridSize="10" guides="1" tooltips="1" connect="1" arrows="1" fold="1" page="1" pageScale="1" pageWidth="827" pageHeight="1169" math="0" shadow="0">
      <root>
        <mxCell id="0" />
        <mxCell id="1" parent="0" />
        <mxCell id="mdEeN0JOD3glWhn85SWr-1" value="Admin create order to specific user&lt;br&gt;&lt;br&gt;Order Page From the Admin Panel" style="text;html=1;strokeColor=none;fillColor=none;align=center;verticalAlign=middle;whiteSpace=wrap;rounded=0;" parent="1" vertex="1">
          <mxGeometry x="130" y="130" width="160" height="110" as="geometry" />
        </mxCell>
        <mxCell id="mdEeN0JOD3glWhn85SWr-3" value="" style="rounded=1;whiteSpace=wrap;html=1;" parent="1" vertex="1">
          <mxGeometry x="-30" y="220" width="500" height="520" as="geometry" />
        </mxCell>
        <mxCell id="mdEeN0JOD3glWhn85SWr-4" value="Create Order&amp;nbsp;" style="text;html=1;strokeColor=none;fillColor=none;align=center;verticalAlign=middle;whiteSpace=wrap;rounded=0;" parent="1" vertex="1">
          <mxGeometry x="130" y="240" width="180" height="60" as="geometry" />
        </mxCell>
        <mxCell id="mdEeN0JOD3glWhn85SWr-5" value="" style="rounded=1;whiteSpace=wrap;html=1;" parent="1" vertex="1">
          <mxGeometry x="70" y="330" width="310" height="40" as="geometry" />
        </mxCell>
        <mxCell id="mdEeN0JOD3glWhn85SWr-6" value="" style="rounded=1;whiteSpace=wrap;html=1;" parent="1" vertex="1">
          <mxGeometry x="70" y="390" width="310" height="40" as="geometry" />
        </mxCell>
        <mxCell id="mdEeN0JOD3glWhn85SWr-7" value="" style="rounded=1;whiteSpace=wrap;html=1;" parent="1" vertex="1">
          <mxGeometry x="70" y="450" width="310" height="40" as="geometry" />
        </mxCell>
        <mxCell id="mdEeN0JOD3glWhn85SWr-8" value="" style="rounded=1;whiteSpace=wrap;html=1;" parent="1" vertex="1">
          <mxGeometry x="70" y="520" width="310" height="40" as="geometry" />
        </mxCell>
        <mxCell id="mdEeN0JOD3glWhn85SWr-9" value="" style="rounded=1;whiteSpace=wrap;html=1;fillColor=#dae8fc;strokeColor=#6c8ebf;" parent="1" vertex="1">
          <mxGeometry x="260" y="600" width="120" height="60" as="geometry" />
        </mxCell>
        <mxCell id="mdEeN0JOD3glWhn85SWr-10" value="Create" style="text;html=1;strokeColor=none;fillColor=none;align=center;verticalAlign=middle;whiteSpace=wrap;rounded=0;" parent="1" vertex="1">
          <mxGeometry x="285" y="620" width="70" height="30" as="geometry" />
        </mxCell>
        <mxCell id="mdEeN0JOD3glWhn85SWr-11" value="" style="ellipse;whiteSpace=wrap;html=1;aspect=fixed;" parent="1" vertex="1">
          <mxGeometry x="70" y="160" width="60" height="60" as="geometry" />
        </mxCell>
        <mxCell id="mdEeN0JOD3glWhn85SWr-13" value="&lt;font style=&quot;font-size: 22px&quot;&gt;1&lt;/font&gt;" style="text;html=1;strokeColor=none;fillColor=none;align=center;verticalAlign=middle;whiteSpace=wrap;rounded=0;" parent="1" vertex="1">
          <mxGeometry x="80" y="180" width="40" height="20" as="geometry" />
        </mxCell>
        <mxCell id="mdEeN0JOD3glWhn85SWr-14" value="Order has been Sent To user In&amp;nbsp;&lt;br&gt;the user Order Page" style="text;html=1;strokeColor=none;fillColor=none;align=center;verticalAlign=middle;whiteSpace=wrap;rounded=0;" parent="1" vertex="1">
          <mxGeometry x="710" y="140" width="160" height="110" as="geometry" />
        </mxCell>
        <mxCell id="mdEeN0JOD3glWhn85SWr-15" value="" style="rounded=1;whiteSpace=wrap;html=1;" parent="1" vertex="1">
          <mxGeometry x="550" y="220" width="500" height="520" as="geometry" />
        </mxCell>
        <mxCell id="mdEeN0JOD3glWhn85SWr-16" value="User Orders Page" style="text;html=1;strokeColor=none;fillColor=none;align=center;verticalAlign=middle;whiteSpace=wrap;rounded=0;" parent="1" vertex="1">
          <mxGeometry x="710" y="240" width="180" height="60" as="geometry" />
        </mxCell>
        <mxCell id="mdEeN0JOD3glWhn85SWr-20" value="" style="rounded=1;whiteSpace=wrap;html=1;" parent="1" vertex="1">
          <mxGeometry x="630" y="280" width="360" height="350" as="geometry" />
        </mxCell>
        <mxCell id="mdEeN0JOD3glWhn85SWr-21" value="" style="rounded=1;whiteSpace=wrap;html=1;fillColor=#dae8fc;strokeColor=#6c8ebf;" parent="1" vertex="1">
          <mxGeometry x="840" y="550" width="110" height="50" as="geometry" />
        </mxCell>
        <mxCell id="mdEeN0JOD3glWhn85SWr-22" value="Order" style="text;html=1;strokeColor=none;fillColor=none;align=center;verticalAlign=middle;whiteSpace=wrap;rounded=0;" parent="1" vertex="1">
          <mxGeometry x="870" y="560" width="70" height="30" as="geometry" />
        </mxCell>
        <mxCell id="mdEeN0JOD3glWhn85SWr-23" value="" style="ellipse;whiteSpace=wrap;html=1;aspect=fixed;" parent="1" vertex="1">
          <mxGeometry x="650" y="160" width="60" height="60" as="geometry" />
        </mxCell>
        <mxCell id="mdEeN0JOD3glWhn85SWr-24" value="&lt;span style=&quot;font-size: 22px&quot;&gt;2&lt;/span&gt;" style="text;html=1;strokeColor=none;fillColor=none;align=center;verticalAlign=middle;whiteSpace=wrap;rounded=0;" parent="1" vertex="1">
          <mxGeometry x="660" y="180" width="40" height="20" as="geometry" />
        </mxCell>
        <mxCell id="mdEeN0JOD3glWhn85SWr-27" value="" style="rounded=1;whiteSpace=wrap;html=1;fillColor=#f8cecc;strokeColor=#b85450;" parent="1" vertex="1">
          <mxGeometry x="710" y="550" width="110" height="50" as="geometry" />
        </mxCell>
        <mxCell id="mdEeN0JOD3glWhn85SWr-28" value="Cancel" style="text;html=1;strokeColor=none;fillColor=none;align=center;verticalAlign=middle;whiteSpace=wrap;rounded=0;" parent="1" vertex="1">
          <mxGeometry x="740" y="555" width="50" height="40" as="geometry" />
        </mxCell>
        <mxCell id="mdEeN0JOD3glWhn85SWr-30" value="Price" style="text;html=1;strokeColor=none;fillColor=none;align=center;verticalAlign=middle;whiteSpace=wrap;rounded=0;" parent="1" vertex="1">
          <mxGeometry x="660" y="310" width="270" height="30" as="geometry" />
        </mxCell>
        <mxCell id="mdEeN0JOD3glWhn85SWr-31" value="Description" style="text;html=1;strokeColor=none;fillColor=none;align=center;verticalAlign=middle;whiteSpace=wrap;rounded=0;" parent="1" vertex="1">
          <mxGeometry x="670" y="350" width="270" height="30" as="geometry" />
        </mxCell>
        <mxCell id="mdEeN0JOD3glWhn85SWr-32" value="Id" style="text;html=1;strokeColor=none;fillColor=none;align=center;verticalAlign=middle;whiteSpace=wrap;rounded=0;" parent="1" vertex="1">
          <mxGeometry x="675" y="400" width="270" height="30" as="geometry" />
        </mxCell>
        <mxCell id="mdEeN0JOD3glWhn85SWr-33" value="others" style="text;html=1;strokeColor=none;fillColor=none;align=center;verticalAlign=middle;whiteSpace=wrap;rounded=0;" parent="1" vertex="1">
          <mxGeometry x="680" y="440" width="270" height="30" as="geometry" />
        </mxCell>
        <mxCell id="mdEeN0JOD3glWhn85SWr-34" value="" style="rounded=1;whiteSpace=wrap;html=1;" parent="1" vertex="1">
          <mxGeometry x="1154" y="230" width="500" height="520" as="geometry" />
        </mxCell>
        <mxCell id="mdEeN0JOD3glWhn85SWr-35" value="Payment Method" style="text;html=1;strokeColor=none;fillColor=none;align=center;verticalAlign=middle;whiteSpace=wrap;rounded=0;" parent="1" vertex="1">
          <mxGeometry x="1314" y="250" width="180" height="60" as="geometry" />
        </mxCell>
        <mxCell id="mdEeN0JOD3glWhn85SWr-36" value="" style="rounded=1;whiteSpace=wrap;html=1;" parent="1" vertex="1">
          <mxGeometry x="1234" y="310" width="360" height="350" as="geometry" />
        </mxCell>
        <mxCell id="mdEeN0JOD3glWhn85SWr-37" value="" style="rounded=1;whiteSpace=wrap;html=1;fillColor=#dae8fc;strokeColor=#6c8ebf;" parent="1" vertex="1">
          <mxGeometry x="1300" y="490" width="230" height="65" as="geometry" />
        </mxCell>
        <mxCell id="mdEeN0JOD3glWhn85SWr-39" value="" style="ellipse;whiteSpace=wrap;html=1;aspect=fixed;" parent="1" vertex="1">
          <mxGeometry x="1254" y="170" width="60" height="60" as="geometry" />
        </mxCell>
        <mxCell id="mdEeN0JOD3glWhn85SWr-40" value="&lt;span style=&quot;font-size: 22px&quot;&gt;3&lt;/span&gt;" style="text;html=1;strokeColor=none;fillColor=none;align=center;verticalAlign=middle;whiteSpace=wrap;rounded=0;" parent="1" vertex="1">
          <mxGeometry x="1264" y="190" width="40" height="20" as="geometry" />
        </mxCell>
        <mxCell id="mdEeN0JOD3glWhn85SWr-41" value="" style="rounded=1;whiteSpace=wrap;html=1;fillColor=#fff2cc;strokeColor=#d6b656;" parent="1" vertex="1">
          <mxGeometry x="1300" y="380" width="230" height="60" as="geometry" />
        </mxCell>
        <mxCell id="mdEeN0JOD3glWhn85SWr-47" value="If the user order&amp;nbsp;&lt;br&gt;It direct him to the payment" style="text;html=1;strokeColor=none;fillColor=none;align=center;verticalAlign=middle;whiteSpace=wrap;rounded=0;" parent="1" vertex="1">
          <mxGeometry x="1329" y="150" width="160" height="110" as="geometry" />
        </mxCell>
        <mxCell id="mdEeN0JOD3glWhn85SWr-51" value="Pay with mobile cash" style="text;html=1;strokeColor=none;fillColor=none;align=center;verticalAlign=middle;whiteSpace=wrap;rounded=0;" parent="1" vertex="1">
          <mxGeometry x="1310" y="380" width="200" height="60" as="geometry" />
        </mxCell>
        <mxCell id="mdEeN0JOD3glWhn85SWr-52" value="Pay &amp;nbsp;Online" style="text;html=1;strokeColor=none;fillColor=none;align=center;verticalAlign=middle;whiteSpace=wrap;rounded=0;" parent="1" vertex="1">
          <mxGeometry x="1314" y="490" width="200" height="60" as="geometry" />
        </mxCell>
      </root>
    </mxGraphModel>
  </diagram>
</mxfile>
